<?xml version="1.0" standalone="no"?><!DOCTYPE svg PUBLIC "-//W3C//DTD SVG 1.1//EN" "http://www.w3.org/Graphics/SVG/1.1/DTD/svg11.dtd"><svg t="1574955045397" class="icon" viewBox="0 0 1175 1024" version="1.1" xmlns="http://www.w3.org/2000/svg" p-id="4713" xmlns:xlink="http://www.w3.org/1999/xlink" width="229.4921875" height="200"><defs><style type="text/css"></style></defs><path d="M1140.335191 774.207956a85.480851 85.480851 0 0 1-66.58471 31.723605c-19.074004 0-38.254726-6.353258-54.155659-19.387043-30.699116-25.17114-35.302204-70.760928-10.266239-101.637906 21.137213-26.060454 59.420397-29.973435 85.345675-8.708162 22.097672 18.12066 25.427263 50.9399 7.399092 73.165633a15.886703 15.886703 0 0 1-22.446283 2.305101 16.093024 16.093024 0 0 1-2.283758-22.567229 20.041578 20.041578 0 0 0-2.831575-28.045403 28.394014 28.394014 0 0 0-21.080297-6.353259 28.486503 28.486503 0 0 0-19.372814 10.48679c-13.915984 17.160201-11.35476 42.50209 5.705838 56.496333a53.757246 53.757246 0 0 0 75.840689-7.761932c24.865216-30.649314 20.290586-75.940292-10.202209-100.954913-39.819919-32.662721-98.649812-26.63673-131.127555 13.396624a15.72307 15.72307 0 0 1-4.119302 3.521683 429.517267 429.517267 0 0 1-22.239962 75.876262c91.656247 82.129917 102.641052 112.807689 90.140857 132.934641-6.18251 9.946087-18.675592 13.965785-34.825533 13.965785-32.627148 0-80.19477-16.406063-120.797284-33.46666l0.860855-2.070323c-78.857242 98.500407-199.647412 161.698609-334.901383 161.698609-112.750773 0-215.441627-43.939221-292.192973-115.603691-40.67366 20.952235-70.049477 31.303849-90.517925 31.310963-12.692288 0-22.012298-3.92721-28.614564-11.660683-23.769582-27.846197 14.285938-90.190658 37.607306-123.116616a431.22475 431.22475 0 0 1-56.126379-213.122296c0-29.831145 3.037896-59.576916 9.042544-88.561435-0.469558-0.377069-0.896428-0.761253-1.365986-1.138322l-38.062635 42.566121a15.900932 15.900932 0 0 1-22.531657 1.195237 16.08591 16.08591 0 0 1-1.195238-22.652603l38.461048-43.014334c-47.930462-52.661612-50.875869-113.070926-48.812661-142.48943-1.828429-0.433985-3.678202-0.754138-5.485288-1.358871-17.31672-5.798327-30.976582-18.789424-38.461048-36.589931-7.192771-17.089056-7.776161-36.646847-1.657681-55.101889C21.343533 200.685868 60.274138 178.630883 95.284648 190.341369c25.10711 8.416467 42.13925 32.612919 44.045938 60.821956 5.620464 10.465446 50.086159 28.216151 96.878299 38.453932 4.382539-4.65289 8.907368-9.248864 13.524685-13.745235-7.697901-22.91584-11.738943-48.02295-11.738943-73.300808 0-98.002391 59.633832-177.734718 132.934641-177.734718 61.156338 0 113.37685 54.781736 128.473842 132.393938a433.167011 433.167011 0 0 1 121.380675 3.34382C644.745459 69.558313 723.232746 5.05104 812.832899 5.05104c110.011686 0 199.519351 95.804007 199.519351 213.542053 0 68.270849-30.051695 131.362334-81.041397 171.609123a434.824693 434.824693 0 0 1 46.927316 196.431653c0 11.646455-0.590504 23.150619-1.494048 34.56941 44.529725-30.037466 105.173818-28.89203 148.828459 6.90819 44.131313 36.191518 50.754923 101.730395 14.762611 146.096487z m-130.857204 86.754348c-2.682171-7.555611-15.488291-30.023237-75.107894-84.335415a433.053179 433.053179 0 0 1-32.705408 55.81334c45.952628 18.583103 92.694966 30.876978 107.813302 28.522075z m-847.999927 41.299738c0.064031 0.106718 1.052948 0.462443 4.133531 0.448214 7.207 0 25.491293-2.909835 66.883519-23.371169a433.942493 433.942493 0 0 1-39.371705-49.737548c-20.930892 32.171819-35.458724 64.493044-31.645345 72.660503z m-53.913766-646.630804a30.243787 30.243787 0 0 1-0.469558-5.812556c-2.020521-13.780808-10.180865-25.10711-21.89135-29.041434a29.624824 29.624824 0 0 0-9.369812-1.522506c-15.559436 0-30.997925 12.044867-37.080832 30.386077-3.656859 11.034607-3.386507 22.560115 0.775482 32.449286 3.86318 9.177719 10.664652 15.801329 19.159378 18.654248 8.523184 2.860033 17.907225 1.657681 26.473096-3.350935 9.220406-5.414143 16.320689-14.470916 19.984662-25.505522a49.758891 49.758891 0 0 0 2.426049-12.23696c0.092489-1.358872 0.014229-2.682171-0.007115-4.019698z m789.198493 137.587531l-7.064709-12.834578 12.080439-8.217261c49.253761-33.523577 78.658035-90.923453 78.658036-153.573837 0-100.058485-75.186154-181.455607-167.603654-181.455607-79.341028 0-148.394474 60.999819-164.217146 145.050653l-3.016553 16.028994-15.900933-3.308248a401.094795 401.094795 0 0 0-141.208817-3.856065l-16.199742 2.461621-2.027635-16.342032c-8.473383-68.562544-51.188908-120.249467-99.332805-120.249468-55.699508 0-101.018944 65.33967-101.018944 145.648273 0 25.114224 4.581745 49.929639 13.254334 71.756959l4.076615 10.280469-8.096313 7.484465a404.467073 404.467073 0 0 0-25.541096 25.854134l-6.047334 6.694755-8.829108-1.743055c-32.001071-6.303457-77.13553-17.764934-105.437056-35.914053-6.552465 16.157055-17.629759 29.674626-32.07933 38.126666-4.866326 2.852919-9.931858 4.980158-15.068535 6.524006-2.454506 26.124485-1.543849 96.316252 68.5412 146.77948l8.67259 6.26077-2.433163 10.444102a404.388814 404.388814 0 0 0-10.458332 91.513957c0 220.620991 178.510199 400.105878 397.928838 400.105878 219.425753 0 397.935952-179.484887 397.935952-400.105878 0-67.609199-17.138857-134.492719-49.566799-193.4151z m-96.572374-245.628498c-31.36788 7.27103-58.523969 34.427119-78.515745 78.537089l-29.03432-13.304136c30.656429-67.630543 71.507952-89.806474 100.385752-96.501229 32.933072-7.605412 68.306422 0.875085 94.644342 22.723748 22.318221 18.540416 35.999426 50.448999 36.597045 85.381249 0.818169 47.162094-20.703227 92.70208-60.580062 128.224834l-21.158556-24.018589c44.23803-39.400163 50.207105-81.859565 49.83715-103.658428-0.4411-25.669156-9.796682-48.54231-25.007507-61.184796-18.746737-15.538092-43.846732-21.628114-67.168099-16.199742zM544.345477 936.290749c-8.494726 3.322477-16.95388 4.980158-25.206713 4.980157a60.231451 60.231451 0 0 1-28.031174-6.90819c-45.34078-23.57749-61.988736-99.311461-63.738905-107.877333a16.050337 16.050337 0 0 1 12.400593-18.938828 16.028994 16.028994 0 0 1 18.853454 12.464623c3.941439 19.123806 20.098494 71.828105 47.169209 85.865035 8.864681 4.610203 18.085087 4.503486 28.998748-0.327267a15.530978 15.530978 0 0 1 7.562725-1.30907c0.206321-0.07826 10.757141 0.291695 17.330949-8.81488 6.609381-9.156376 14.19345-34.085623-9.220406-98.393689a16.057452 16.057452 0 0 1 9.497872-20.575166 15.943619 15.943619 0 0 1 20.468449 9.547674c21.962496 60.316826 23.477887 103.736687 4.503485 129.050118-12.009295 16.014765-29.553679 20.788602-40.588286 21.236816zM372.79327 133.019753c-5.371456-2.731972-10.131064-3.158843-14.947588-1.415788-6.516892 2.354903-16.08591 13.019555-22.77355 31.51017-8.893139 24.609094-11.945264 62.031423 6.161166 93.313928l-27.582959 16.142826c-23.641521-40.858638-19.93486-88.988305-8.565872-120.413102 9.391155-25.989309 24.680239-44.472809 41.932929-50.740693 13.083586-4.73115 26.949768-3.728004 40.118728 2.938293 26.444638 13.375281 49.445853 48.876692 64.756281 99.973111l-30.549711 9.255979c-12.208501-40.723462-30.812948-71.593326-48.549424-80.564724zM311.217176 350.773595c12.130242-7.093168 25.83279-8.65836 38.546421-4.389653 20.653426 6.915305 33.929104 28.258838 32.299881 51.893244a58.395908 58.395908 0 0 1-2.852919 14.399771c-4.375424 13.204533-13.097815 24.167994-24.566407 30.884093-7.648099 4.482142-15.922276 6.758786-24.175109 6.758785-4.837868 0-9.675735-0.782596-14.371313-2.362017-25.519751-8.551642-38.731399-38.290299-29.454076-66.285901 4.382539-13.218762 13.112044-24.182223 24.573522-30.898322z m14.968931 66.748344c5.286082 1.757284 10.04569-0.291695 12.400593-1.679025 4.752493-2.788888 8.430696-7.520038 10.351614-13.318365 0.704337-2.120124 1.138322-4.29005 1.287726-6.459976 0.618962-9.035429-3.713775-16.95388-10.543705-19.244752a13.460655 13.460655 0 0 0-4.204676-0.675879c-3.514569 0-6.488434 1.358872-8.203032 2.362018-4.752493 2.774659-8.430696 7.505809-10.351613 13.304136-3.656859 11.027492 0.58339 22.802008 9.263093 25.711843z" fill="#ffffff" p-id="4714"></path></svg>